<svg aria-hidden="true" style="position:absolute;width:0;height:0" xmlns="http://www.w3.org/2000/svg" overflow="hidden"><defs><symbol id="icon-call" viewBox="0 0 32 32"><path d="M31.16 24.686l-6.477-4.319a1.89 1.89 0 00-2.531.411l-1.887 2.426a.807.807 0 01-1.034.218l-.359-.198c-1.19-.648-2.67-1.456-5.652-4.439s-3.791-4.465-4.44-5.652l-.197-.359a.807.807 0 01.213-1.038L11.22 9.85a1.89 1.89 0 00.412-2.531L7.313.842A1.88 1.88 0 004.778.271L2.07 1.898A3.822 3.822 0 00.328 4.159c-.975 3.554-.242 9.687 8.793 18.722C16.308 30.067 21.658 32 25.335 32a9.427 9.427 0 002.506-.327 3.815 3.815 0 002.261-1.742l1.629-2.707a1.88 1.88 0 00-.57-2.536zm-.348 1.989l-1.625 2.708a2.761 2.761 0 01-1.626 1.261c-3.281.901-9.012.155-17.685-8.519S.457 7.721 1.357 4.44a2.765 2.765 0 011.262-1.629l2.708-1.625a.816.816 0 011.1.247l4.316 6.476a.822.822 0 01-.178 1.099L8.14 10.894a1.865 1.865 0 00-.494 2.395l.193.35c.682 1.25 1.529 2.805 4.622 5.898s4.648 3.94 5.897 4.622l.35.193c.81.454 1.831.244 2.395-.494l1.886-2.425a.822.822 0 011.099-.178l6.476 4.319a.814.814 0 01.247 1.1zM18.132 5.336c5.004.006 9.06 4.061 9.065 9.065a.533.533 0 101.066 0c-.006-5.593-4.539-10.126-10.132-10.132a.533.533 0 100 1.066z"/><path d="M18.132 8.536a5.873 5.873 0 015.866 5.866.533.533 0 101.066 0 6.94 6.94 0 00-6.932-6.932.533.533 0 100 1.066z"/><path d="M18.132 11.735a2.67 2.67 0 012.666 2.666.533.533 0 101.066 0 3.737 3.737 0 00-3.733-3.733.533.533 0 100 1.066z"/></symbol><symbol id="icon-email" viewBox="0 0 32 32"><path d="M30.4 3.733H1.6a1.6 1.6 0 00-1.6 1.6v21.333a1.6 1.6 0 001.6 1.6h28.8a1.6 1.6 0 001.6-1.6V5.333a1.6 1.6 0 00-1.6-1.6zm.533 22.934a.533.533 0 01-.533.533H1.6a.533.533 0 01-.533-.533V5.334c0-.295.239-.533.533-.533h28.8c.295 0 .533.239.533.533v21.333z"/><path d="M29.38 5.869a.533.533 0 00-.389.123L16.687 16.328a1.066 1.066 0 01-1.373 0L3.01 5.992a.535.535 0 00-.686.817l12.304 10.335a2.13 2.13 0 002.745 0L29.677 6.809a.533.533 0 00-.297-.94zM10.258 17.071a.531.531 0 00-.514.166l-7.467 8a.533.533 0 10.779.727l7.467-8a.533.533 0 00-.265-.893zm11.999.165a.535.535 0 00-.909.203.53.53 0 00.13.524l7.467 8a.533.533 0 00.779-.728l-7.467-8z"/></symbol><symbol id="icon-settings" viewBox="0 0 32 32"><path d="M5.628 24.747a2.61 2.61 0 00-1.261.322A14.774 14.774 0 011.25 16C1.25 7.867 7.867 1.25 16 1.25c.989 0 1.977.098 2.938.292a.624.624 0 10.247-1.226A16.152 16.152 0 0016-.001c-4.274 0-8.292 1.664-11.314 4.686S0 11.725 0 15.999c0 3.595 1.221 7.103 3.443 9.916-.286.427-.44.93-.44 1.456 0 .701.273 1.36.769 1.856s1.155.769 1.856.769 1.36-.273 1.856-.769.769-1.155.769-1.856-.273-1.36-.769-1.856a2.607 2.607 0 00-1.856-.769zm.972 3.597c-.26.26-.605.403-.972.403s-.712-.143-.972-.403-.403-.605-.403-.972.143-.713.403-.972a1.37 1.37 0 011.944 0c.26.26.403.605.403.972s-.143.712-.403.972zM28.556 6.083a2.632 2.632 0 00-.328-3.312c-.496-.496-1.155-.769-1.856-.769s-1.36.273-1.856.769-.769 1.155-.769 1.856.273 1.36.769 1.856 1.155.769 1.856.769a2.61 2.61 0 001.261-.322 14.774 14.774 0 013.117 9.069c0 8.133-6.617 14.75-14.75 14.75-.979 0-1.958-.096-2.909-.287a.626.626 0 00-.246 1.226c1.032.206 2.094.311 3.155.311 4.274 0 8.292-1.664 11.314-4.686S32 20.273 32 15.999c0-3.595-1.221-7.104-3.444-9.916zM25.4 5.601c-.26-.26-.403-.605-.403-.972s.143-.712.403-.972.605-.403.972-.403.713.143.972.403a1.377 1.377 0 01-.972 2.348c-.367 0-.713-.143-.972-.403z"/><path d="M13.421 26.75c0 .345.28.625.625.625h3.908c.345 0 .625-.28.625-.625v-1.212a9.801 9.801 0 002.346-.972l.855.855a.625.625 0 00.884 0l2.762-2.764a.625.625 0 000-.884l-.855-.855a9.785 9.785 0 00.972-2.346h1.207c.345 0 .625-.28.625-.625v-3.908a.625.625 0 00-.625-.625h-1.207a9.777 9.777 0 00-.972-2.345l.85-.85a.625.625 0 000-.884l-2.764-2.762a.625.625 0 00-.884 0l-.849.849a9.785 9.785 0 00-2.346-.972v-1.2a.625.625 0 00-.625-.625h-3.908a.625.625 0 00-.625.625v1.201a9.777 9.777 0 00-2.345.972l-.849-.849a.625.625 0 00-.884 0L6.578 9.336a.625.625 0 000 .884l.85.85a9.794 9.794 0 00-.972 2.345H5.251a.625.625 0 00-.625.625l-.002 3.908a.625.625 0 00.625.625h1.207c.221.822.547 1.607.972 2.346l-.854.855a.625.625 0 000 .884l2.762 2.764a.625.625 0 00.884 0l.855-.855a9.801 9.801 0 002.346.972zm-2.101-3.498a.625.625 0 00-.781.083l-.761.761-1.879-1.88.76-.761a.625.625 0 00.083-.781 8.553 8.553 0 01-1.184-2.857.625.625 0 00-.611-.494H5.873l.001-2.658h1.072a.625.625 0 00.611-.494 8.553 8.553 0 011.184-2.857.625.625 0 00-.083-.781l-.755-.756 1.88-1.879.755.755a.625.625 0 00.781.083 8.553 8.553 0 012.857-1.184.626.626 0 00.494-.611V5.874h2.658v1.067c0 .295.206.549.494.611a8.553 8.553 0 012.857 1.184c.247.16.573.126.781-.083l.755-.755 1.88 1.879-.755.755a.624.624 0 00-.083.781 8.553 8.553 0 011.184 2.857.625.625 0 00.611.494h1.074v2.658h-1.074a.625.625 0 00-.611.494 8.553 8.553 0 01-1.184 2.857.625.625 0 00.083.781l.76.76-1.879 1.88-.761-.761a.624.624 0 00-.781-.083 8.553 8.553 0 01-2.857 1.184.625.625 0 00-.494.611v1.078H14.67v-1.078a.626.626 0 00-.494-.611 8.553 8.553 0 01-2.857-1.184z"/><path d="M21.164 16c0-2.848-2.317-5.164-5.164-5.164S10.836 13.153 10.836 16s2.317 5.164 5.164 5.164 5.164-2.317 5.164-5.164zm-9.078 0c0-2.158 1.756-3.914 3.914-3.914s3.914 1.756 3.914 3.914-1.756 3.914-3.914 3.914-3.914-1.756-3.914-3.914zm9.669-13.636c.165 0 .326-.067.442-.183s.183-.278.183-.443a.625.625 0 10-.625.626zM10.272 29.647c-.164 0-.326.067-.442.183s-.183.278-.183.442c0 .165.067.326.183.442s.278.183.442.183.326-.067.442-.183c.116-.116.183-.278.183-.442s-.067-.326-.183-.442a.631.631 0 00-.442-.183z"/></symbol><symbol id="icon-money-back" viewBox="0 0 32 32"><path d="M22.848 22.233h-9.187a.469.469 0 000 .938h9.187a3.285 3.285 0 003.282-3.282v-7.04a3.285 3.285 0 00-3.282-3.282h-2.662l-6.05-3.088a1.23 1.23 0 00-1.653.536L11.18 9.568H9.444c-.603 0-1.094.491-1.094 1.094v11.416c0 .603.491 1.094 1.094 1.094h2.155a.469.469 0 000-.938H9.444a.156.156 0 01-.156-.156V10.662c0-.086.07-.156.156-.156h13.404a2.347 2.347 0 012.344 2.344v1.524h-3.735a2.171 2.171 0 00-2.169 2.169v.625c0 1.196.973 2.169 2.169 2.169h3.735v.553a2.347 2.347 0 01-2.344 2.345zm-9.53-14.792a.292.292 0 01.392-.127l4.414 2.253h-5.891zm8.139 10.957a1.232 1.232 0 01-1.231-1.231v-.625c0-.679.552-1.231 1.231-1.231h3.735v3.088z"/><path d="M30.871 10.293a14.894 14.894 0 00-3.221-4.845 15.285 15.285 0 00-1.072-.981.47.47 0 00-.599.721c.347.289.686.599 1.006.921A13.95 13.95 0 0131.062 16c0 3.75-1.46 7.275-4.111 9.926s-6.176 4.111-9.926 4.111a13.91 13.91 0 01-8.174-2.624l.554-.72a13.015 13.015 0 007.62 2.436c3.508 0 6.807-1.371 9.291-3.861s3.847-5.793 3.838-9.301c-.018-7.203-5.893-13.078-13.096-13.096h-.034c-2.094 0-4.098.481-5.954 1.43a13.28 13.28 0 00-4.557 3.842.469.469 0 00.75.562 12.258 12.258 0 019.763-4.897h.03c6.689.017 12.144 5.472 12.161 12.161.008 3.257-1.258 6.324-3.564 8.637s-5.371 3.586-8.627 3.586a12.09 12.09 0 01-7.241-2.382.716.716 0 00-.99.14l-.825 1.073a.715.715 0 00.142 1.011 14.845 14.845 0 008.914 2.941c4 0 7.761-1.558 10.589-4.386S32.001 20 32.001 16c0-1.97-.38-3.89-1.129-5.707z"/><path d="M6.135 13.734a.649.649 0 00-.895-.229l-.17.101a12.055 12.055 0 011.075-3.102.469.469 0 10-.836-.424 13.017 13.017 0 00-1.323 4.383.47.47 0 00.705.458l.783-.464.463.781-2.677 1.587-2.205-2 .61-.672.629.571a.468.468 0 00.781-.296 13.854 13.854 0 014.024-8.352 13.944 13.944 0 019.877-4.111h.048c2.567 0 5.069.692 7.24 2.004a.469.469 0 10.485-.803 14.927 14.927 0 00-7.725-2.139h-.051c-1.97.007-3.889.393-5.703 1.148S7.829 4.02 6.436 5.413c-2.218 2.218-3.647 4.976-4.168 8.022l-.184-.167a.656.656 0 00-.923.045l-.992 1.094a.652.652 0 00.045.923l2.537 2.302a.714.714 0 00.845.085l3.063-1.815a.654.654 0 00.229-.895zm16.437 3.115a.79.79 0 11-1.582 0 .79.79 0 011.582 0z"/></symbol><symbol id="icon-world" viewBox="0 0 32 32"><path d="M16.006.003a15.997 15.997 0 00-14.708 9.7l-.199.066.077.232c-3.318 8.183.626 17.506 8.809 20.823a15.988 15.988 0 006.016 1.172c8.835.001 15.998-7.16 15.999-15.994S24.84.004 16.006.003zm12.547 24.062l-.821-.821v-1.912a.528.528 0 00-.053-.238l-2.08-4.153v-2.007a.535.535 0 00-.237-.444l-1.6-1.066a.536.536 0 00-.427-.074l-1.959.489-3.291-1.412-.453-3.172 1.255-1.254h2.693l.906 1.362a.532.532 0 00.356.23l3.199.533a.541.541 0 00.256-.02l2.947-.982a14.88 14.88 0 01-.692 14.941zM26.354 5.258l-.867.578-2.417-.484-1.568-.522a.521.521 0 00-.298-.012l-1.983.495-.869-.29.644-1.288h1.803a.53.53 0 00.238-.056l1.845-.922a14.987 14.987 0 013.471 2.5zM10.161 2.26l1.28.853c.063.042.134.07.209.082l2.584.431-.252.754-1.346.45a.528.528 0 00-.288.231l-1.531 2.552-2.46 1.476-3.626.518a.534.534 0 00-.459.527v1.6c0 .141.056.277.156.377l.91.91v.916L3.12 12.458l-.805-2.414a15.018 15.018 0 017.847-7.784zM8.642 19.743l-2.41-.483-.896-1.787V16.22l1.987-1.987.735 1.471c.09.181.275.295.477.295h3.431l1.444 2.407c.096.16.27.259.457.259h1.482l-.373 1.87-2.019 2.019c-.1.1-.157.235-.157.377v1.333l-1.92 1.44a.535.535 0 00-.213.427v1.926l-.663-.22-.936-2.342v-5.23a.534.534 0 00-.427-.523zM7.04 27.94a14.926 14.926 0 01-5.318-16.3l.443 1.329a.531.531 0 00.21.275l2.658 1.772-.606.607c-.1.1-.156.236-.156.377v1.6a.53.53 0 00.056.238l1.066 2.133a.535.535 0 00.373.284l2.24.447v4.896c0 .068.013.135.038.198l1.066 2.666a.533.533 0 00.327.308l1.6.533a.533.533 0 00.699-.505v-2.399l1.92-1.44a.535.535 0 00.213-.427v-1.379l1.977-1.977a.537.537 0 00.146-.272l.533-2.666a.532.532 0 00-.522-.637h-1.831l-1.444-2.408a.534.534 0 00-.457-.259H8.868l-.916-1.838a.535.535 0 00-.854-.139l-.692.689V12.8a.534.534 0 00-.156-.377l-.91-.91v-.917l3.275-.468a.528.528 0 00.199-.071l2.666-1.6a.537.537 0 00.182-.182l1.498-2.497 1.412-.471a.527.527 0 00.337-.337l.533-1.6a.534.534 0 00-.418-.694l-3.086-.515-.542-.362a14.892 14.892 0 0110.255.381l-.974.486H18.67a.533.533 0 00-.48.295l-1.066 2.133a.534.534 0 00.308.744l1.6.533a.521.521 0 00.298.012l1.983-.495 1.453.484a.464.464 0 00.064.017l2.666.533c.139.028.283 0 .4-.079l1.214-.809a15.033 15.033 0 011.604 2.143l-2.623.874-2.84-.473-.938-1.408a.534.534 0 00-.441-.237h-3.199a.534.534 0 00-.377.156l-1.6 1.6a.532.532 0 00-.151.453l.533 3.733a.53.53 0 00.32.414l3.733 1.6a.526.526 0 00.339.027l1.904-.476 1.164.777v1.848a.528.528 0 00.053.238l2.08 4.153v2.007c0 .141.056.277.156.377l1.116 1.116c-4.947 6.594-14.303 7.929-20.898 2.982z"/></symbol><symbol id="icon-compass" viewBox="0 0 32 32"><path d="M32 16c0-4.274-1.664-8.292-4.686-11.314S20.274 0 16 0A15.885 15.885 0 004.961 4.42v-.001c-.092.088-.184.177-.274.267l-.006.006a.625.625 0 00.884.884l.003-.003.003-.003A14.649 14.649 0 0116 1.25c3.94 0 7.644 1.534 10.43 4.32 4.156 4.156 5.308 10.196 3.456 15.397l.005.002c-.051.144-.104.287-.16.43a.626.626 0 001.164.457c.041-.104.08-.209.119-.315l.004.002c.645-1.751.983-3.62.983-5.542z"/><path d="M21.619 19.756a.624.624 0 00.52-.972l-5-7.5-.009-.012a.634.634 0 00-.515-.266.638.638 0 00-.517.278l-5 7.5a.626.626 0 00.739.932l4.781-1.793 4.781 1.793c.072.027.146.04.219.04zm-5.625-2.933l-2.78 1.043 2.78-4.17zm1.25 0v-3.128l2.78 4.17zM24.96 6.157c-.023-.091-.093-.197-.213-.316-.085-.085-.174-.141-.268-.169s-.172-.011-.233.05L21.72 8.248c-.061.061-.078.139-.05.233s.084.184.169.268c.085.085.174.141.268.169s.172.011.233-.05l1.352-1.352-.62 2.132c-.05.172.009.343.179.513.085.085.174.141.268.169s.172.011.233-.05l2.53-2.53c.061-.061.077-.138.048-.231s-.086-.182-.171-.266c-.085-.085-.174-.142-.267-.171s-.17-.013-.231.048l-1.352 1.352.585-1.873c.066-.209.088-.36.066-.451zM9.043 23.168c.096.096.168.212.227.334.052.107.082.277.167.362.077.077.175.099.294.068s.214-.082.284-.153a.343.343 0 00.097-.278.804.804 0 00-.1-.313 2.384 2.384 0 00-.428-.561c-.516-.516-1.291-.746-1.857-.179-.496.496-.327 1.147-.099 1.734.092.237.246.641.032.855-.196.196-.489.037-.648-.123-.236-.235-.218-.505-.281-.805-.041-.196-.189-.289-.385-.259a.53.53 0 00-.304.141c-.133.133-.157.347-.072.644s.256.574.513.831c.297.297.613.461.948.491s.64-.091.913-.364c.156-.156.264-.327.324-.511.098-.302.057-.632-.027-.932-.083-.297-.274-.575-.307-.882-.012-.113.012-.199.073-.261.196-.196.489.012.636.159zm3.139-16.192a.625.625 0 10-.001.001zm2.722-.668a.625.625 0 10-.001 0zm2.701.075a.626.626 0 10.204-1.236.626.626 0 00-.204 1.236zm2.781.837a.626.626 0 00.265-1.192.625.625 0 10-.265 1.193zm4.453 12.902a.624.624 0 101.133.528.626.626 0 00-1.133-.528zm.81-7.316a.625.625 0 10-.001-1.25.625.625 0 00.001 1.249zm.586 5.526a.626.626 0 10-.003-1.252.626.626 0 00.003 1.252zm.704-3.493a.626.626 0 10-1.242.132.626.626 0 001.241-.132zm-20.345-2.6a.626.626 0 100-1.255.626.626 0 000 1.256zm-1.445 1.952a.625.625 0 100-.001zm1.202 6.253a.625.625 0 100-1.252.625.625 0 000 1.253zm-1.29-3.283a.625.625 0 101.243-.132.625.625 0 00-1.243.132zm14.528 7.907a.625.625 0 10.46 1.16.625.625 0 00-.46-1.159zm-2.559.628a.624.624 0 10.131 1.243.626.626 0 00-.131-1.244zm-5.983-.555a.626.626 0 101.134.528.626.626 0 00-1.134-.528zm2.629.991a.624.624 0 101.232.206.624.624 0 00-1.232-.206z"/><path d="M4.338 22.087a.626.626 0 00.566-.89c-1.92-4.1-1.389-8.911 1.251-12.483a1.868 1.868 0 001.626.94 1.873 1.873 0 001.326-3.2 1.891 1.891 0 00-.392-.3c3.561-2.629 8.356-3.167 12.446-1.268a.625.625 0 00.526-1.134 13.465 13.465 0 00-7.944-1.063 13.412 13.412 0 00-7.289 3.765 13.403 13.403 0 00-3.768 7.311 13.466 13.466 0 001.086 7.962c.106.227.332.36.567.36zm3-14.749a.621.621 0 01.442-.183.621.621 0 01.625.625.621.621 0 01-.625.625.621.621 0 01-.625-.625c0-.167.065-.324.183-.442zm20.08 2.672a.625.625 0 00-.304.83c1.899 4.09 1.361 8.886-1.268 12.446a1.878 1.878 0 00-2.952-.392 1.878 1.878 0 00.392 2.952c-3.573 2.639-8.383 3.17-12.483 1.25a.625.625 0 10-.53 1.132 13.432 13.432 0 005.711 1.273c.749 0 1.501-.062 2.251-.187a13.416 13.416 0 007.311-3.768 13.412 13.412 0 003.765-7.289c.458-2.712.09-5.459-1.063-7.944a.625.625 0 00-.83-.304zm-2.756 14.652a.621.621 0 01-.442.183.621.621 0 01-.625-.625.621.621 0 01.625-.625.621.621 0 01.625.625.621.621 0 01-.183.442zM2.794 8.095a.624.624 0 00.866-.179v-.001a.625.625 0 10-.866.18z"/><path d="M26.884 26.234a.616.616 0 00-.442.184l-.012.012-.184.18A14.648 14.648 0 0116 30.751c-3.94 0-7.644-1.534-10.43-4.32C1.393 22.254.251 16.174 2.142 10.955l-.005-.001c.044-.12.088-.241.135-.36a.626.626 0 00-1.164-.458c-.059.151-.116.303-.171.456l-.004-.002A16.007 16.007 0 000 16c0 4.274 1.664 8.292 4.686 11.314S11.726 32 16 32c4.02 0 7.813-1.474 10.764-4.164v.001l.021-.019a12.463 12.463 0 00.3-.282l.004-.003c.076-.072.151-.145.225-.219l.004-.004a.625.625 0 00-.434-1.076zm2.327-2.337a.623.623 0 00-.954.65.623.623 0 001.134.216.625.625 0 00-.18-.865z"/></symbol><symbol id="icon-send" viewBox="0 0 32 32"><path d="M3.125 16.063a.625.625 0 00-.625-.625H.625a.625.625 0 000 1.25H2.5c.345 0 .625-.28.625-.625zm3.75 3.75a.625.625 0 00-.625-.625H2.5a.625.625 0 000 1.25h3.75c.345 0 .625-.28.625-.625zm-.625-6.875a.625.625 0 000-1.25H2.5a.625.625 0 000 1.25zm14.126 3.125a.625.625 0 11-1.25 0 .625.625 0 011.25 0z"/><path d="M31.648 15.5L8.397 4.25a.624.624 0 00-.865.76l2.576 7.729-4.205 2.803a.624.624 0 000 1.04l4.205 2.803-2.576 7.729a.626.626 0 00.865.76l23.251-11.25a.626.626 0 000-1.126zm-24.271.563l3.142-2.094.698 2.094-.698 2.094zm4.949.625h4.612a.625.625 0 000-1.25h-4.612L9.187 6.02l19.463 9.418h-6.086a.625.625 0 000 1.25h6.086L9.187 26.106z"/></symbol><symbol id="icon-heart" viewBox="0 0 32 32"><path d="M16 30.22c-.456 0-.895-.165-1.237-.465a374.562 374.562 0 00-3.639-3.13l-.006-.005c-3.224-2.747-6.008-5.12-7.945-7.457-2.165-2.613-3.174-5.09-3.174-7.796 0-2.629.902-5.055 2.539-6.831C4.195 2.739 6.467 1.75 8.939 1.75c1.847 0 3.539.584 5.028 1.736A10.288 10.288 0 0116 5.609c.6-.83 1.281-1.541 2.033-2.123 1.489-1.152 3.181-1.736 5.028-1.736 2.471 0 4.744.99 6.401 2.786C31.099 6.312 32 8.737 32 11.367c0 2.706-1.008 5.184-3.174 7.796-1.937 2.337-4.721 4.71-7.944 7.457-1.102.938-2.35 2.002-3.645 3.136A1.88 1.88 0 0116 30.22zM8.939 3.624c-1.942 0-3.725.775-5.023 2.182-1.317 1.428-2.042 3.403-2.042 5.56 0 2.276.846 4.312 2.743 6.6 1.833 2.212 4.56 4.536 7.717 7.227l.006.005c1.104.941 2.355 2.007 3.657 3.146a430.966 430.966 0 013.669-3.151c3.157-2.691 5.884-5.014 7.717-7.226 1.896-2.289 2.742-4.324 2.742-6.6 0-2.157-.725-4.132-2.042-5.56-1.297-1.407-3.081-2.182-5.023-2.182-1.422 0-2.728.452-3.881 1.344-1.028.795-1.743 1.8-2.163 2.503-.216.362-.596.577-1.016.577s-.801-.216-1.016-.577c-.419-.703-1.135-1.708-2.163-2.503-1.153-.892-2.459-1.344-3.881-1.344z"/></symbol><symbol id="icon-shuffle" viewBox="0 0 32 32"><path d="M26.012 12.829a.792.792 0 001.122-.005l4.635-4.675a.793.793 0 00-.002-1.12l-4.636-4.636a.793.793 0 10-1.122 1.122l3.281 3.281h-4.767a7.182 7.182 0 00-5.7 2.839l-3.848 5.097-3.848-5.097a7.18 7.18 0 00-5.7-2.839H.792a.794.794 0 000 1.588h4.634a5.58 5.58 0 014.433 2.208l4.12 5.457-4.12 5.457a5.585 5.585 0 01-4.433 2.208H.791a.794.794 0 000 1.588h4.634a7.177 7.177 0 005.7-2.839l3.848-5.096 3.848 5.097a7.18 7.18 0 005.7 2.839h4.767l-3.281 3.281a.794.794 0 101.123 1.123l4.635-4.636a.793.793 0 00.002-1.12l-4.636-4.675a.794.794 0 10-1.127 1.118l3.295 3.322h-4.778a5.58 5.58 0 01-4.433-2.208l-4.12-5.457 4.12-5.457a5.585 5.585 0 014.433-2.208h4.778l-3.294 3.322a.792.792 0 00.005 1.122z"/></symbol><symbol id="icon-clock" viewBox="0 0 32 32"><path d="M16 0C7.178 0 0 7.178 0 16s7.178 16 16 16 16-7.178 16-16S24.822 0 16 0zm0 30C8.28 30 2 23.72 2 16S8.28 2 16 2s14 6.28 14 14-6.28 14-14 14z"/><path d="M17 6h-2v10.414l6.293 6.293 1.414-1.414L17 15.586z"/></symbol><symbol id="icon-basket" viewBox="0 0 32 32"><path d="M31.12 6.072c-.593-.678-1.439-1.051-2.381-1.051h-7.112V.938A.938.938 0 0020.689 0h-5.021a.938.938 0 00-.938.938v4.083H5.96l-.229-1.719C5.484 1.45 4.195 0 2.796 0H1.122a.938.938 0 000 1.876h1.674c.301 0 .938.636 1.076 1.675l2.684 20.127c.118.887.574 1.718 1.283 2.339a3.87 3.87 0 001.799.895 3.429 3.429 0 00-.416 1.641c0 1.901 1.547 3.448 3.448 3.448s3.448-1.547 3.448-3.448c0-.566-.138-1.101-.381-1.573h4.913a3.425 3.425 0 00-.381 1.573c0 1.901 1.547 3.448 3.448 3.448s3.448-1.547 3.448-3.448c0-.566-.138-1.101-.381-1.573h2.456a.938.938 0 000-1.876H10.328c-.916 0-1.792-.767-1.913-1.675l-.196-1.471H26.73c.895 0 1.779-.342 2.488-.963s1.165-1.452 1.284-2.339l1.344-10.085c.125-.934-.134-1.822-.727-2.499zm-16.874 22.48c0 .867-.706 1.573-1.573 1.573s-1.573-.706-1.573-1.573.706-1.573 1.573-1.573 1.573.706 1.573 1.573zm11.046 0c0 .867-.706 1.573-1.573 1.573s-1.573-.706-1.573-1.573.706-1.573 1.573-1.573 1.573.706 1.573 1.573zM16.607 1.875h3.146v9.104c0 .518.42.938.938.938h.331l-2.785 2.763-2.785-2.763h.219c.518 0 .938-.42.938-.938zm13.382 6.448l-1.344 10.086c-.121.908-.997 1.675-1.913 1.675H7.971L6.213 6.896h8.52v3.146h-1.557a.938.938 0 00-.66 1.603l5.061 5.021a.935.935 0 001.32 0l5.061-5.021a.939.939 0 00-.66-1.603h-1.669V6.896h7.112c.394 0 .738.146.97.411s.331.626.279 1.016z"/></symbol></defs></svg>