<svg aria-hidden="true" style="position: absolute; width: 0; height: 0; overflow: hidden;" version="1.1" xmlns="http://www.w3.org/2000/svg" xmlns:xlink="http://www.w3.org/1999/xlink">
<defs>

<symbol id="icon-call" viewBox="0 0 32 32">
<title>call</title>
<path d="M31.16 24.686l-6.477-4.319c-0.822-0.544-1.924-0.365-2.531 0.411l-1.887 2.426c-0.242 0.32-0.683 0.412-1.034 0.218l-0.359-0.198c-1.19-0.648-2.67-1.456-5.652-4.439s-3.791-4.465-4.44-5.652l-0.197-0.359c-0.198-0.351-0.107-0.793 0.213-1.038l2.424-1.886c0.776-0.608 0.955-1.709 0.412-2.531l-4.319-6.477c-0.557-0.837-1.673-1.089-2.535-0.571l-2.708 1.627c-0.851 0.5-1.475 1.311-1.742 2.261-0.975 3.554-0.242 9.687 8.793 18.722 7.187 7.186 12.537 9.119 16.214 9.119 0.846 0.004 1.689-0.106 2.506-0.327 0.951-0.266 1.761-0.891 2.261-1.742l1.629-2.707c0.519-0.862 0.268-1.979-0.57-2.536zM30.812 26.675l-1.625 2.708c-0.359 0.614-0.942 1.066-1.626 1.261-3.281 0.901-9.012 0.155-17.685-8.519s-9.419-14.404-8.519-17.685c0.195-0.685 0.647-1.269 1.262-1.629l2.708-1.625c0.374-0.225 0.859-0.116 1.1 0.247l4.316 6.476c0.236 0.357 0.158 0.835-0.178 1.099l-2.425 1.886c-0.738 0.564-0.949 1.585-0.494 2.395l0.193 0.35c0.682 1.25 1.529 2.805 4.622 5.898s4.648 3.94 5.897 4.622l0.35 0.193c0.81 0.454 1.831 0.244 2.395-0.494l1.886-2.425c0.264-0.336 0.742-0.414 1.099-0.178l6.476 4.319c0.364 0.241 0.473 0.726 0.247 1.1z"></path>
<path d="M18.132 5.336c5.004 0.006 9.060 4.061 9.065 9.065 0 0.295 0.239 0.533 0.533 0.533s0.533-0.239 0.533-0.533c-0.006-5.593-4.539-10.126-10.132-10.132-0.295 0-0.533 0.239-0.533 0.533s0.239 0.533 0.533 0.533z"></path>
<path d="M18.132 8.536c3.238 0.004 5.862 2.628 5.866 5.866 0 0.295 0.239 0.533 0.533 0.533s0.533-0.239 0.533-0.533c-0.004-3.827-3.106-6.928-6.932-6.932-0.295 0-0.533 0.239-0.533 0.533s0.239 0.533 0.533 0.533z"></path>
<path d="M18.132 11.735c1.472 0.002 2.664 1.194 2.666 2.666 0 0.295 0.239 0.533 0.533 0.533s0.533-0.239 0.533-0.533c-0.002-2.061-1.672-3.73-3.733-3.733-0.295 0-0.533 0.239-0.533 0.533s0.239 0.533 0.533 0.533z"></path>
</symbol>

<symbol id="icon-email" viewBox="0 0 32 32">
<title>email</title>
<path d="M30.4 3.733h-28.8c-0.884 0-1.6 0.716-1.6 1.6v21.333c0 0.884 0.716 1.6 1.6 1.6h28.8c0.884 0 1.6-0.716 1.6-1.6v-21.333c0-0.884-0.716-1.6-1.6-1.6zM30.933 26.667c0 0.295-0.239 0.533-0.533 0.533h-28.8c-0.295 0-0.533-0.239-0.533-0.533v-21.333c0-0.295 0.239-0.533 0.533-0.533h28.8c0.295 0 0.533 0.239 0.533 0.533v21.333z"></path>
<path d="M29.38 5.869c-0.141-0.012-0.281 0.032-0.389 0.123l-12.304 10.336c-0.397 0.334-0.976 0.334-1.373 0l-12.304-10.336c-0.146-0.122-0.346-0.158-0.525-0.093s-0.31 0.221-0.343 0.409 0.036 0.379 0.182 0.501l12.304 10.335c0.793 0.668 1.951 0.668 2.745 0l12.304-10.335c0.108-0.091 0.176-0.221 0.188-0.362s-0.032-0.281-0.123-0.389c-0.091-0.108-0.221-0.176-0.362-0.189z"></path>
<path d="M10.258 17.071c-0.189-0.042-0.386 0.021-0.514 0.166l-7.467 8c-0.135 0.138-0.185 0.339-0.13 0.524s0.206 0.326 0.395 0.369c0.189 0.042 0.386-0.021 0.514-0.166l7.467-8c0.135-0.138 0.185-0.339 0.13-0.524s-0.206-0.326-0.395-0.369z"></path>
<path d="M22.257 17.236c-0.129-0.144-0.326-0.208-0.514-0.166s-0.34 0.183-0.395 0.369c-0.055 0.185-0.006 0.386 0.13 0.524l7.467 8c0.203 0.207 0.534 0.215 0.745 0.017s0.227-0.529 0.034-0.745l-7.467-8z"></path>
</symbol>

<symbol id="icon-settings" viewBox="0 0 32 32">
<title>settings</title>
<path d="M5.628 24.747c-0.448 0-0.879 0.112-1.261 0.322-2.013-2.58-3.117-5.785-3.117-9.069 0-8.133 6.617-14.75 14.75-14.75 0.989 0 1.977 0.098 2.938 0.292 0.338 0.068 0.668-0.15 0.736-0.489s-0.15-0.668-0.489-0.737c-1.042-0.21-2.113-0.317-3.185-0.317-4.274 0-8.292 1.664-11.314 4.686s-4.686 7.040-4.686 11.314c0 3.595 1.221 7.103 3.443 9.916-0.286 0.427-0.44 0.93-0.44 1.456 0 0.701 0.273 1.36 0.769 1.856s1.155 0.769 1.856 0.769 1.36-0.273 1.856-0.769c0.496-0.496 0.769-1.155 0.769-1.856s-0.273-1.36-0.769-1.856c-0.496-0.496-1.155-0.769-1.856-0.769zM6.6 28.344c-0.26 0.26-0.605 0.403-0.972 0.403s-0.712-0.143-0.972-0.403-0.403-0.605-0.403-0.972c0-0.367 0.143-0.713 0.403-0.972s0.605-0.403 0.972-0.403 0.712 0.143 0.972 0.403c0.26 0.26 0.403 0.605 0.403 0.972s-0.143 0.712-0.403 0.972z"></path>
<path d="M28.556 6.083c0.679-1.019 0.57-2.413-0.328-3.312-0.496-0.496-1.155-0.769-1.856-0.769s-1.36 0.273-1.856 0.769c-0.496 0.496-0.769 1.155-0.769 1.856s0.273 1.36 0.769 1.856 1.155 0.769 1.856 0.769c0.448 0 0.879-0.112 1.261-0.322 2.013 2.58 3.117 5.785 3.117 9.069 0 8.133-6.617 14.75-14.75 14.75-0.979 0-1.958-0.096-2.909-0.287-0.338-0.068-0.668 0.152-0.736 0.49s0.152 0.668 0.49 0.736c1.032 0.206 2.094 0.311 3.155 0.311 4.274 0 8.292-1.664 11.314-4.686s4.686-7.040 4.686-11.314c0-3.595-1.221-7.104-3.444-9.916zM25.4 5.601c-0.26-0.26-0.403-0.605-0.403-0.972s0.143-0.712 0.403-0.972c0.26-0.26 0.605-0.403 0.972-0.403s0.713 0.143 0.972 0.403c0.536 0.536 0.536 1.408 0 1.945-0.26 0.26-0.605 0.403-0.972 0.403s-0.713-0.143-0.972-0.403z"></path>
<path d="M13.421 26.75c0 0.345 0.28 0.625 0.625 0.625h3.908c0.345 0 0.625-0.28 0.625-0.625v-1.212c0.822-0.221 1.607-0.547 2.346-0.972l0.855 0.855c0.117 0.117 0.276 0.183 0.442 0.183s0.325-0.066 0.442-0.183l2.762-2.764c0.244-0.244 0.244-0.64 0-0.884l-0.855-0.855c0.425-0.738 0.751-1.524 0.972-2.346h1.207c0.345 0 0.625-0.28 0.625-0.625v-3.908c0-0.345-0.28-0.625-0.625-0.625h-1.207c-0.221-0.822-0.547-1.607-0.972-2.345l0.85-0.85c0.117-0.117 0.183-0.276 0.183-0.442s-0.066-0.325-0.183-0.442l-2.764-2.762c-0.244-0.244-0.64-0.244-0.884 0l-0.849 0.849c-0.738-0.425-1.524-0.751-2.346-0.972v-1.2c0-0.345-0.28-0.625-0.625-0.625h-3.908c-0.345 0-0.625 0.28-0.625 0.625v1.201c-0.822 0.221-1.607 0.547-2.345 0.972l-0.849-0.849c-0.244-0.244-0.64-0.244-0.884-0l-2.764 2.762c-0.117 0.117-0.183 0.276-0.183 0.442s0.066 0.325 0.183 0.442l0.85 0.85c-0.425 0.738-0.751 1.524-0.972 2.345h-1.205c-0.345 0-0.625 0.28-0.625 0.625l-0.002 3.908c-0 0.166 0.066 0.325 0.183 0.442s0.276 0.183 0.442 0.183h1.207c0.221 0.822 0.547 1.607 0.972 2.346l-0.854 0.855c-0.244 0.244-0.244 0.64 0 0.884l2.762 2.764c0.117 0.117 0.276 0.183 0.442 0.183h0c0.166 0 0.325-0.066 0.442-0.183l0.855-0.855c0.739 0.425 1.524 0.751 2.346 0.972zM11.32 23.252c-0.247-0.16-0.573-0.125-0.781 0.083l-0.761 0.761-1.879-1.88 0.76-0.761c0.208-0.208 0.243-0.534 0.083-0.781-0.567-0.877-0.965-1.838-1.184-2.857-0.062-0.288-0.316-0.494-0.611-0.494h-1.074l0.001-2.658h1.072c0.295 0 0.549-0.206 0.611-0.494 0.219-1.019 0.617-1.98 1.184-2.857 0.16-0.247 0.125-0.573-0.083-0.781l-0.755-0.756 1.88-1.879 0.755 0.755c0.209 0.208 0.534 0.243 0.781 0.083 0.877-0.567 1.838-0.965 2.857-1.184 0.288-0.062 0.494-0.317 0.494-0.611v-1.067h2.658v1.067c0 0.295 0.206 0.549 0.494 0.611 1.019 0.219 1.98 0.617 2.857 1.184 0.247 0.16 0.573 0.126 0.781-0.083l0.755-0.755 1.88 1.879-0.755 0.755c-0.209 0.209-0.243 0.534-0.083 0.781 0.567 0.877 0.965 1.838 1.184 2.857 0.062 0.288 0.316 0.494 0.611 0.494h1.074v2.658h-1.074c-0.295 0-0.549 0.206-0.611 0.494-0.219 1.019-0.617 1.98-1.184 2.857-0.16 0.248-0.125 0.573 0.083 0.781l0.76 0.76-1.879 1.88-0.761-0.761c-0.209-0.209-0.534-0.243-0.781-0.083-0.877 0.567-1.838 0.965-2.857 1.184-0.288 0.062-0.494 0.316-0.494 0.611v1.078h-2.658v-1.078c0-0.294-0.206-0.549-0.494-0.611-1.019-0.219-1.98-0.617-2.857-1.184z"></path>
<path d="M21.164 16c0-2.848-2.317-5.164-5.164-5.164s-5.164 2.317-5.164 5.164 2.317 5.164 5.164 5.164 5.164-2.317 5.164-5.164zM12.086 16c0-2.158 1.756-3.914 3.914-3.914s3.914 1.756 3.914 3.914-1.756 3.914-3.914 3.914-3.914-1.756-3.914-3.914z"></path>
<path d="M21.755 2.364c0.165 0 0.326-0.067 0.442-0.183s0.183-0.278 0.183-0.443c0-0.164-0.067-0.325-0.183-0.442s-0.277-0.183-0.442-0.183c-0.165 0-0.325 0.067-0.442 0.183s-0.183 0.278-0.183 0.442c0 0.165 0.067 0.326 0.183 0.443s0.277 0.183 0.442 0.183z"></path>
<path d="M10.272 29.647c-0.164 0-0.326 0.067-0.442 0.183s-0.183 0.278-0.183 0.442c0 0.165 0.067 0.326 0.183 0.442s0.278 0.183 0.442 0.183 0.326-0.067 0.442-0.183c0.116-0.116 0.183-0.278 0.183-0.442s-0.067-0.326-0.183-0.442c-0.116-0.116-0.278-0.183-0.442-0.183z"></path>
</symbol>

<symbol id="icon-money-back" viewBox="0 0 32 32">
<title>money-back</title>
<path d="M22.848 22.233h-9.187c-0.259 0-0.469 0.21-0.469 0.469s0.21 0.469 0.469 0.469h9.187c1.81 0 3.282-1.472 3.282-3.282v-7.040c0-1.81-1.472-3.282-3.282-3.282h-2.662l-6.050-3.088c-0.604-0.308-1.345-0.067-1.653 0.536l-1.303 2.553h-1.736c-0.603 0-1.094 0.491-1.094 1.094v11.416c0 0.603 0.491 1.094 1.094 1.094h2.155c0.259 0 0.469-0.21 0.469-0.469s-0.21-0.469-0.469-0.469h-2.155c-0.086 0-0.156-0.070-0.156-0.156v-11.416c0-0.086 0.070-0.156 0.156-0.156h13.404c1.293 0 2.344 1.052 2.344 2.344v1.524h-3.735c-1.196 0-2.169 0.973-2.169 2.169v0.625c0 1.196 0.973 2.169 2.169 2.169h3.735v0.553c0 1.293-1.052 2.345-2.344 2.345zM13.318 7.441c0.073-0.143 0.249-0.2 0.392-0.127l4.414 2.253h-5.891zM21.457 18.398c-0.679 0-1.231-0.552-1.231-1.231v-0.625c0-0.679 0.552-1.231 1.231-1.231h3.735v3.088z"></path>
<path d="M30.871 10.293c-0.749-1.817-1.832-3.447-3.221-4.845-0.341-0.343-0.701-0.673-1.072-0.981-0.199-0.165-0.495-0.138-0.66 0.061s-0.138 0.495 0.061 0.66c0.347 0.289 0.686 0.599 1.006 0.921 2.629 2.647 4.077 6.16 4.077 9.891 0 3.75-1.46 7.275-4.111 9.926s-6.176 4.111-9.926 4.111c-2.962 0-5.783-0.906-8.174-2.624l0.554-0.72c2.23 1.594 4.86 2.436 7.62 2.436 3.508 0 6.807-1.371 9.291-3.861s3.847-5.793 3.838-9.301c-0.018-7.203-5.893-13.078-13.096-13.096-0.011 0-0.023-0-0.034-0-2.094 0-4.098 0.481-5.954 1.43-1.779 0.909-3.355 2.238-4.557 3.842-0.155 0.207-0.113 0.501 0.094 0.656s0.501 0.113 0.656-0.094c2.298-3.068 5.946-4.897 9.763-4.897 0.010 0 0.020 0 0.030 0 6.689 0.017 12.144 5.472 12.161 12.161 0.008 3.257-1.258 6.324-3.564 8.637s-5.371 3.586-8.627 3.586c-2.631 0-5.135-0.824-7.241-2.382-0.31-0.23-0.754-0.167-0.99 0.14l-0.825 1.073c-0.118 0.153-0.168 0.343-0.141 0.534s0.127 0.361 0.283 0.477c2.591 1.924 5.674 2.941 8.914 2.941 4 0 7.761-1.558 10.589-4.386s4.386-6.589 4.386-10.589c0-1.97-0.38-3.89-1.129-5.707z"></path>
<path d="M6.135 13.734c-0.089-0.15-0.231-0.257-0.4-0.3s-0.345-0.018-0.495 0.071l-0.17 0.101c0.215-1.077 0.575-2.117 1.075-3.102 0.117-0.231 0.025-0.513-0.206-0.63s-0.513-0.025-0.63 0.206c-0.698 1.376-1.143 2.851-1.323 4.383-0.021 0.177 0.061 0.351 0.21 0.448s0.341 0.101 0.495 0.010l0.783-0.464 0.463 0.781-2.677 1.587-2.205-2 0.61-0.672 0.629 0.571c0.131 0.118 0.316 0.154 0.481 0.091s0.281-0.212 0.3-0.387c0.353-3.185 1.744-6.073 4.024-8.352 2.639-2.639 6.146-4.099 9.877-4.111 0.016-0 0.032-0 0.048-0 2.567 0 5.069 0.692 7.24 2.004 0.222 0.134 0.51 0.063 0.644-0.159s0.063-0.51-0.159-0.644c-2.317-1.4-4.987-2.139-7.725-2.139-0.017 0-0.034 0-0.051 0-1.97 0.007-3.889 0.393-5.703 1.148s-3.441 1.845-4.834 3.238c-2.218 2.218-3.647 4.976-4.168 8.022l-0.184-0.167c-0.129-0.117-0.296-0.176-0.471-0.169s-0.335 0.084-0.452 0.214l-0.992 1.094c-0.117 0.129-0.177 0.296-0.169 0.471s0.084 0.335 0.214 0.452l2.537 2.302c0.136 0.123 0.307 0.186 0.48 0.186 0.125 0 0.251-0.033 0.365-0.101l3.063-1.815c0.31-0.184 0.413-0.585 0.229-0.895z"></path>
<path d="M22.572 16.849c0 0.437-0.354 0.791-0.791 0.791s-0.791-0.354-0.791-0.791c0-0.437 0.354-0.791 0.791-0.791s0.791 0.354 0.791 0.791z"></path>
</symbol>

<symbol id="icon-world" viewBox="0 0 32 32">
<title>world</title>
<path d="M16.006 0.003c-6.402-0.001-12.188 3.815-14.708 9.7l-0.199 0.066 0.077 0.232c-3.318 8.183 0.626 17.506 8.809 20.823 1.911 0.775 3.954 1.173 6.016 1.172 8.835 0.001 15.998-7.16 15.999-15.994s-7.16-15.998-15.994-15.999zM28.553 24.065l-0.821-0.821v-1.912c0.001-0.083-0.017-0.164-0.053-0.238l-2.080-4.153v-2.007c0-0.178-0.089-0.345-0.237-0.444l-1.6-1.066c-0.125-0.084-0.28-0.11-0.427-0.074l-1.959 0.489-3.291-1.412-0.453-3.172 1.255-1.254h2.693l0.906 1.362c0.082 0.123 0.211 0.206 0.356 0.23l3.199 0.533c0.086 0.014 0.174 0.007 0.256-0.020l2.947-0.982c2.471 4.743 2.207 10.447-0.692 14.941zM26.354 5.258l-0.867 0.578-2.417-0.484-1.568-0.522c-0.096-0.033-0.199-0.037-0.298-0.012l-1.983 0.495-0.869-0.29 0.644-1.288h1.803c0.083 0 0.164-0.019 0.238-0.056l1.845-0.922c1.271 0.663 2.439 1.505 3.471 2.5zM10.161 2.26l1.28 0.853c0.063 0.042 0.134 0.070 0.209 0.082l2.584 0.431-0.252 0.754-1.346 0.45c-0.121 0.040-0.223 0.122-0.288 0.231l-1.531 2.552-2.46 1.476-3.626 0.518c-0.263 0.037-0.458 0.262-0.459 0.527v1.6c0 0.141 0.056 0.277 0.156 0.377l0.91 0.91v0.916l-2.218-1.479-0.805-2.414c1.531-3.498 4.337-6.281 7.847-7.784zM8.642 19.743l-2.41-0.483-0.896-1.787v-1.253l1.987-1.987 0.735 1.471c0.090 0.181 0.275 0.295 0.477 0.295h3.431l1.444 2.407c0.096 0.16 0.27 0.259 0.457 0.259h1.482l-0.373 1.87-2.019 2.019c-0.1 0.1-0.157 0.235-0.157 0.377v1.333l-1.92 1.44c-0.134 0.101-0.213 0.259-0.213 0.427v1.926l-0.663-0.22-0.936-2.342v-5.23c0-0.253-0.178-0.472-0.427-0.523zM7.040 27.94c-5.028-3.772-7.154-10.289-5.318-16.3l0.443 1.329c0.037 0.112 0.111 0.209 0.21 0.275l2.658 1.772-0.606 0.607c-0.1 0.1-0.156 0.236-0.156 0.377v1.6c-0 0.083 0.019 0.164 0.056 0.238l1.066 2.133c0.074 0.147 0.212 0.252 0.373 0.284l2.24 0.447v4.896c-0 0.068 0.013 0.135 0.038 0.198l1.066 2.666c0.058 0.146 0.178 0.258 0.327 0.308l1.6 0.533c0.053 0.018 0.109 0.027 0.166 0.028 0.294 0 0.533-0.239 0.533-0.533v-2.399l1.92-1.44c0.134-0.101 0.213-0.259 0.213-0.427v-1.379l1.977-1.977c0.074-0.074 0.125-0.169 0.146-0.272l0.533-2.666c0.058-0.289-0.13-0.57-0.418-0.627-0.034-0.007-0.069-0.010-0.104-0.010h-1.831l-1.444-2.408c-0.096-0.16-0.27-0.259-0.457-0.259h-3.403l-0.916-1.838c-0.077-0.153-0.223-0.261-0.392-0.288-0.169-0.029-0.342 0.027-0.462 0.149l-0.692 0.689v-0.846c0-0.141-0.056-0.277-0.156-0.377l-0.91-0.91v-0.917l3.275-0.468c0.070-0.010 0.138-0.034 0.199-0.071l2.666-1.6c0.075-0.045 0.137-0.108 0.182-0.182l1.498-2.497 1.412-0.471c0.159-0.052 0.285-0.177 0.337-0.337l0.533-1.6c0.092-0.28-0.059-0.581-0.339-0.674-0.026-0.009-0.052-0.015-0.079-0.020l-3.086-0.515-0.542-0.362c3.356-1.092 6.99-0.957 10.255 0.381l-0.974 0.486h-2.007c-0.203-0.001-0.389 0.113-0.48 0.295l-1.066 2.133c-0.131 0.264-0.024 0.584 0.239 0.715 0.022 0.011 0.046 0.021 0.069 0.029l1.6 0.533c0.096 0.033 0.199 0.037 0.298 0.012l1.983-0.495 1.453 0.484c0.021 0.007 0.042 0.013 0.064 0.017l2.666 0.533c0.139 0.028 0.283-0 0.4-0.079l1.214-0.809c0.597 0.665 1.134 1.382 1.604 2.143l-2.623 0.874-2.84-0.473-0.938-1.408c-0.098-0.147-0.264-0.236-0.441-0.237h-3.199c-0.141 0-0.277 0.056-0.377 0.156l-1.6 1.6c-0.119 0.119-0.175 0.286-0.151 0.453l0.533 3.733c0.027 0.185 0.148 0.342 0.32 0.414l3.733 1.6c0.107 0.046 0.226 0.056 0.339 0.027l1.904-0.476 1.164 0.777v1.848c-0.001 0.083 0.017 0.164 0.053 0.238l2.080 4.153v2.007c0 0.141 0.056 0.277 0.156 0.377l1.116 1.116c-4.947 6.594-14.303 7.929-20.898 2.982z"></path>
</symbol>

<symbol id="icon-compass" viewBox="0 0 32 32">
<title>compass</title>
<path d="M32 16c0-4.274-1.664-8.292-4.686-11.314s-7.040-4.686-11.314-4.686c-4.146 0-8.051 1.567-11.039 4.42-0-0-0-0-0-0.001-0.092 0.088-0.184 0.177-0.274 0.267l-0.006 0.006c-0.244 0.244-0.243 0.64 0.001 0.884 0.117 0.118 0.274 0.183 0.441 0.183s0.324-0.065 0.442-0.183c0.001-0.001 0.002-0.003 0.003-0.003s0.002-0.002 0.003-0.003c0.077-0.077 0.154-0.152 0.232-0.226 2.758-2.642 6.366-4.094 10.197-4.094 3.94 0 7.644 1.534 10.43 4.32 4.156 4.156 5.308 10.196 3.456 15.397 0.002 0 0.003 0.001 0.005 0.002-0.051 0.144-0.104 0.287-0.16 0.43-0.061 0.156-0.058 0.326 0.009 0.478s0.189 0.271 0.344 0.332c0.073 0.029 0.15 0.044 0.229 0.044 0.259 0 0.487-0.156 0.582-0.397 0.041-0.104 0.080-0.209 0.119-0.315 0.001 0 0.003 0.001 0.004 0.002 0.645-1.751 0.983-3.62 0.983-5.542z"></path>
<path d="M21.619 19.756c0.187 0 0.369-0.084 0.49-0.237 0.169-0.212 0.181-0.509 0.030-0.735l-5-7.5c-0.003-0.004-0.006-0.008-0.009-0.012-0.115-0.165-0.314-0.267-0.515-0.266-0.203 0.001-0.404 0.109-0.517 0.278l-5 7.5c-0.15 0.226-0.138 0.523 0.030 0.735 0.121 0.153 0.303 0.237 0.49 0.237 0.073 0 0.148-0.013 0.219-0.040l4.781-1.793 4.781 1.793c0.072 0.027 0.146 0.040 0.219 0.040zM15.994 16.823l-2.78 1.043 2.78-4.17zM17.244 16.823v-3.128l2.78 4.17z"></path>
<path d="M24.96 6.157c-0.023-0.091-0.093-0.197-0.213-0.316-0.085-0.085-0.174-0.141-0.268-0.169s-0.172-0.011-0.233 0.050l-2.526 2.526c-0.061 0.061-0.078 0.139-0.050 0.233s0.084 0.184 0.169 0.268c0.085 0.085 0.174 0.141 0.268 0.169s0.172 0.011 0.233-0.050l1.352-1.352-0.62 2.132c-0.050 0.172 0.009 0.343 0.179 0.513 0.085 0.085 0.174 0.141 0.268 0.169s0.172 0.011 0.233-0.050l2.53-2.53c0.061-0.061 0.077-0.138 0.048-0.231s-0.086-0.182-0.171-0.266c-0.085-0.085-0.174-0.142-0.267-0.171s-0.17-0.013-0.231 0.048l-1.352 1.352 0.585-1.873c0.066-0.209 0.088-0.36 0.066-0.451z"></path>
<path d="M9.043 23.168c0.096 0.096 0.168 0.212 0.227 0.334 0.052 0.107 0.082 0.277 0.167 0.362 0.077 0.077 0.175 0.099 0.294 0.068s0.214-0.082 0.284-0.153c0.079-0.079 0.104-0.177 0.097-0.278-0.007-0.108-0.050-0.219-0.1-0.313-0.108-0.205-0.264-0.398-0.428-0.561-0.516-0.516-1.291-0.746-1.857-0.179-0.496 0.496-0.327 1.147-0.099 1.734 0.092 0.237 0.246 0.641 0.032 0.855-0.196 0.196-0.489 0.037-0.648-0.123-0.236-0.235-0.218-0.505-0.281-0.805-0.041-0.196-0.189-0.289-0.385-0.259-0.129 0.020-0.23 0.067-0.304 0.141-0.133 0.133-0.157 0.347-0.072 0.644s0.256 0.574 0.513 0.831c0.297 0.297 0.613 0.461 0.948 0.491s0.64-0.091 0.913-0.364c0.156-0.156 0.264-0.327 0.324-0.511 0.098-0.302 0.057-0.632-0.027-0.932-0.083-0.297-0.274-0.575-0.307-0.882-0.012-0.113 0.012-0.199 0.073-0.261 0.196-0.196 0.489 0.012 0.636 0.159z"></path>
<path d="M12.182 6.976c0.076 0 0.154-0.014 0.229-0.044 0.321-0.127 0.478-0.49 0.351-0.811s-0.49-0.478-0.811-0.351c-0.321 0.127-0.479 0.49-0.352 0.811 0.098 0.246 0.332 0.396 0.582 0.396z"></path>
<path d="M14.904 6.308c0.022 0 0.044-0.001 0.066-0.004 0.343-0.036 0.592-0.344 0.556-0.687s-0.344-0.593-0.688-0.556c-0.343 0.036-0.592 0.344-0.556 0.687 0.034 0.321 0.305 0.56 0.621 0.56z"></path>
<path d="M17.605 6.383c0.034 0.006 0.069 0.008 0.103 0.008 0.3 0 0.565-0.217 0.616-0.522 0.056-0.341-0.174-0.662-0.514-0.719s-0.663 0.174-0.719 0.514c-0.056 0.341 0.174 0.662 0.514 0.719z"></path>
<path d="M20.386 7.22c0.235 0 0.461-0.134 0.567-0.361 0.146-0.313 0.010-0.684-0.302-0.831s-0.685-0.011-0.831 0.303c-0.146 0.313-0.011 0.684 0.302 0.831 0.085 0.039 0.175 0.059 0.264 0.059z"></path>
<path d="M24.839 20.122c-0.146 0.313-0.011 0.684 0.302 0.83 0.086 0.040 0.175 0.059 0.264 0.059 0.236 0 0.461-0.133 0.567-0.361 0.146-0.313 0.010-0.685-0.302-0.831s-0.685-0.011-0.831 0.303z"></path>
<path d="M25.649 12.806c0.077 0 0.154-0.014 0.229-0.044 0.321-0.127 0.479-0.49 0.352-0.811s-0.49-0.479-0.811-0.352c-0.321 0.127-0.478 0.49-0.351 0.811 0.097 0.246 0.332 0.395 0.581 0.395z"></path>
<path d="M26.235 18.332c0.3 0 0.565-0.217 0.616-0.523 0.057-0.341-0.174-0.663-0.514-0.719s-0.663 0.174-0.719 0.514c-0.056 0.34 0.174 0.663 0.514 0.719 0.034 0.006 0.069 0.009 0.103 0.009z"></path>
<path d="M26.939 14.839c-0.036-0.343-0.344-0.592-0.688-0.556s-0.592 0.344-0.556 0.687c0.034 0.321 0.305 0.559 0.621 0.559 0.022 0 0.044-0.001 0.066-0.003 0.344-0.036 0.593-0.344 0.556-0.687z"></path>
<path d="M6.594 12.239c0.235 0 0.461-0.134 0.567-0.361 0.146-0.313 0.010-0.684-0.303-0.831s-0.684-0.010-0.831 0.303c-0.146 0.313-0.011 0.685 0.303 0.831 0.086 0.040 0.175 0.059 0.264 0.059z"></path>
<path d="M5.149 14.191c-0.057 0.34 0.174 0.662 0.514 0.719 0.035 0.006 0.069 0.008 0.103 0.008 0.301 0.001 0.565-0.217 0.616-0.523 0.056-0.341-0.174-0.662-0.514-0.719s-0.662 0.174-0.719 0.514z"></path>
<path d="M6.351 20.444c0.077 0 0.154-0.014 0.23-0.044 0.321-0.127 0.478-0.49 0.351-0.811s-0.49-0.478-0.811-0.351c-0.321 0.127-0.478 0.49-0.351 0.811 0.097 0.246 0.332 0.396 0.581 0.396z"></path>
<path d="M5.061 17.161c0.034 0.321 0.305 0.559 0.621 0.559 0.022 0 0.044-0.001 0.067-0.004 0.343-0.036 0.592-0.344 0.556-0.687s-0.344-0.592-0.688-0.556c-0.343 0.036-0.592 0.344-0.556 0.688z"></path>
<path d="M19.589 25.068c-0.321 0.127-0.478 0.49-0.351 0.811 0.097 0.246 0.332 0.396 0.581 0.396 0.076 0 0.154-0.014 0.229-0.044 0.321-0.127 0.479-0.49 0.352-0.811s-0.49-0.478-0.811-0.351z"></path>
<path d="M17.030 25.696c-0.344 0.036-0.593 0.344-0.556 0.687 0.034 0.321 0.306 0.559 0.621 0.559 0.022 0 0.044-0.001 0.066-0.003 0.343-0.036 0.592-0.344 0.556-0.688s-0.344-0.592-0.687-0.556z"></path>
<path d="M11.047 25.141c-0.146 0.313-0.010 0.685 0.303 0.831 0.086 0.040 0.176 0.059 0.264 0.059 0.236 0 0.461-0.134 0.567-0.361 0.146-0.313 0.011-0.684-0.303-0.831s-0.684-0.011-0.831 0.302z"></path>
<path d="M13.676 26.132c-0.057 0.341 0.174 0.663 0.514 0.719 0.034 0.006 0.069 0.009 0.103 0.009 0.3 0 0.565-0.217 0.616-0.523 0.056-0.341-0.174-0.663-0.514-0.719s-0.662 0.174-0.719 0.514z"></path>
<path d="M4.338 22.087c0.089 0 0.179-0.019 0.265-0.059 0.313-0.146 0.447-0.518 0.301-0.831-1.92-4.1-1.389-8.911 1.251-12.483 0.080 0.14 0.18 0.272 0.3 0.392 0.366 0.366 0.846 0.548 1.326 0.548s0.96-0.183 1.326-0.548c0.731-0.731 0.731-1.921 0-2.652-0.12-0.12-0.252-0.219-0.392-0.3 3.561-2.629 8.356-3.167 12.446-1.268 0.313 0.145 0.685 0.009 0.83-0.304s0.009-0.685-0.304-0.83c-2.484-1.153-5.231-1.521-7.944-1.063-2.773 0.468-5.294 1.77-7.289 3.765-2.001 2.001-3.304 4.529-3.768 7.311-0.454 2.721-0.079 5.474 1.086 7.962 0.106 0.227 0.332 0.36 0.567 0.36zM7.338 7.338c0.118-0.118 0.275-0.183 0.442-0.183s0.324 0.065 0.442 0.183 0.183 0.275 0.183 0.442c0 0.167-0.065 0.324-0.183 0.442s-0.275 0.183-0.442 0.183-0.324-0.065-0.442-0.183-0.183-0.275-0.183-0.442c0-0.167 0.065-0.324 0.183-0.442z"></path>
<path d="M27.418 10.010c-0.313 0.145-0.449 0.517-0.304 0.83 1.899 4.090 1.361 8.886-1.268 12.446-0.081-0.14-0.18-0.272-0.3-0.392-0.731-0.731-1.921-0.731-2.652 0s-0.731 1.921 0 2.652c0.12 0.12 0.252 0.219 0.392 0.3-3.573 2.639-8.383 3.17-12.483 1.25-0.313-0.146-0.685-0.012-0.831 0.301s-0.012 0.685 0.301 0.831c1.802 0.844 3.743 1.273 5.711 1.273 0.749 0 1.501-0.062 2.251-0.187 2.782-0.465 5.31-1.768 7.311-3.768 1.995-1.995 3.297-4.516 3.765-7.289 0.458-2.712 0.090-5.459-1.063-7.944-0.145-0.313-0.517-0.449-0.83-0.304zM24.662 24.662c-0.118 0.118-0.275 0.183-0.442 0.183s-0.324-0.065-0.442-0.183-0.183-0.275-0.183-0.442c0-0.167 0.065-0.324 0.183-0.442s0.275-0.183 0.442-0.183 0.324 0.065 0.442 0.183 0.183 0.275 0.183 0.442c0 0.167-0.065 0.324-0.183 0.442z"></path>
<path d="M2.794 8.095c0.102 0.068 0.221 0.103 0.343 0.103 0.211 0 0.407-0.105 0.523-0.282 0 0 0 0 0-0.001 0.189-0.288 0.108-0.676-0.18-0.865-0.102-0.067-0.221-0.103-0.343-0.103-0.211 0-0.406 0.106-0.522 0.282-0.189 0.288-0.109 0.676 0.179 0.866z"></path>
<path d="M26.884 26.234c-0.168 0-0.324 0.065-0.442 0.184l-0.012 0.012c-0.061 0.061-0.122 0.12-0.184 0.18-0-0-0-0-0-0-2.764 2.672-6.392 4.141-10.246 4.141-3.94 0-7.644-1.534-10.43-4.32-4.177-4.177-5.319-10.257-3.428-15.476-0.002-0-0.003-0.001-0.005-0.001 0.044-0.12 0.088-0.241 0.135-0.36 0.126-0.321-0.033-0.684-0.353-0.81-0.073-0.029-0.15-0.044-0.228-0.044-0.259 0-0.488 0.156-0.583 0.396-0.059 0.151-0.116 0.303-0.171 0.456-0.001-0.001-0.003-0.001-0.004-0.002-0.614 1.713-0.933 3.537-0.933 5.41 0 4.274 1.664 8.292 4.686 11.314s7.040 4.686 11.314 4.686c4.020 0 7.813-1.474 10.764-4.164v0.001c0.007-0.006 0.014-0.013 0.021-0.019 0.032-0.029 0.063-0.058 0.094-0.088 0.069-0.064 0.138-0.128 0.206-0.194 0.001-0.001 0.002-0.002 0.004-0.003 0 0-0-0-0-0 0.076-0.072 0.151-0.145 0.225-0.219l0.004-0.004c0.003-0.003 0.006-0.006 0.008-0.009 0.244-0.244 0.243-0.64-0.001-0.884-0.118-0.117-0.275-0.183-0.441-0.183z"></path>
<path d="M29.211 23.897c-0.102-0.067-0.22-0.102-0.342-0.102-0.212 0-0.407 0.106-0.523 0.283-0.092 0.139-0.123 0.306-0.089 0.469s0.129 0.304 0.269 0.396c0.102 0.067 0.221 0.102 0.342 0.102 0.212 0 0.407-0.106 0.523-0.282 0.189-0.288 0.108-0.676-0.18-0.865z"></path>
</symbol>

<symbol id="icon-send" viewBox="0 0 32 32">
<title>send</title>
<path d="M3.125 16.063c0-0.345-0.28-0.625-0.625-0.625h-1.875c-0.345 0-0.625 0.28-0.625 0.625s0.28 0.625 0.625 0.625h1.875c0.345 0 0.625-0.28 0.625-0.625z"></path>
<path d="M6.875 19.813c0-0.345-0.28-0.625-0.625-0.625h-3.75c-0.345 0-0.625 0.28-0.625 0.625s0.28 0.625 0.625 0.625h3.75c0.345 0 0.625-0.28 0.625-0.625z"></path>
<path d="M6.25 12.938c0.345 0 0.625-0.28 0.625-0.625s-0.28-0.625-0.625-0.625h-3.75c-0.345 0-0.625 0.28-0.625 0.625s0.28 0.625 0.625 0.625z"></path>
<path d="M20.376 16.063c0 0.345-0.28 0.625-0.625 0.625s-0.625-0.28-0.625-0.625c0-0.345 0.28-0.625 0.625-0.625s0.625 0.28 0.625 0.625z"></path>
<path d="M31.648 15.5l-23.251-11.25c-0.226-0.11-0.496-0.073-0.685 0.093s-0.26 0.429-0.18 0.667l2.576 7.729-4.205 2.803c-0.174 0.116-0.278 0.311-0.278 0.52s0.104 0.404 0.278 0.52l4.205 2.803-2.576 7.729c-0.079 0.238-0.008 0.501 0.18 0.667s0.459 0.202 0.685 0.093l23.251-11.25c0.463-0.225 0.475-0.896 0-1.126zM7.377 16.063l3.142-2.094 0.698 2.094-0.698 2.094zM12.326 16.688h4.612c0.345 0 0.625-0.28 0.625-0.625s-0.28-0.625-0.625-0.625h-4.612l-3.139-9.418 19.463 9.418h-6.086c-0.345 0-0.625 0.28-0.625 0.625s0.28 0.625 0.625 0.625h6.086l-19.463 9.418z"></path>
</symbol>

<symbol id="icon-heart" viewBox="0 0 32 32">
<title>heart</title>
<path d="M16 30.22c-0.456 0-0.895-0.165-1.237-0.465-1.293-1.13-2.539-2.193-3.639-3.13l-0.006-0.005c-3.224-2.747-6.008-5.12-7.945-7.457-2.165-2.613-3.174-5.090-3.174-7.796 0-2.629 0.902-5.055 2.539-6.831 1.657-1.797 3.929-2.786 6.401-2.786 1.847 0 3.539 0.584 5.028 1.736 0.751 0.581 1.433 1.293 2.033 2.123 0.6-0.83 1.281-1.541 2.033-2.123 1.489-1.152 3.181-1.736 5.028-1.736 2.471 0 4.744 0.99 6.401 2.786 1.637 1.776 2.538 4.201 2.538 6.831 0 2.706-1.008 5.184-3.174 7.796-1.937 2.337-4.721 4.71-7.944 7.457-1.102 0.938-2.35 2.002-3.645 3.136-0.342 0.299-0.782 0.464-1.237 0.464zM8.939 3.624c-1.942 0-3.725 0.775-5.023 2.182-1.317 1.428-2.042 3.403-2.042 5.56 0 2.276 0.846 4.312 2.743 6.6 1.833 2.212 4.56 4.536 7.717 7.227l0.006 0.005c1.104 0.941 2.355 2.007 3.657 3.146 1.31-1.141 2.563-2.209 3.669-3.151 3.157-2.691 5.884-5.014 7.717-7.226 1.896-2.289 2.742-4.324 2.742-6.6 0-2.157-0.725-4.132-2.042-5.56-1.297-1.407-3.081-2.182-5.023-2.182-1.422 0-2.728 0.452-3.881 1.344-1.028 0.795-1.743 1.8-2.163 2.503-0.216 0.362-0.596 0.577-1.016 0.577s-0.801-0.216-1.016-0.577c-0.419-0.703-1.135-1.708-2.163-2.503-1.153-0.892-2.459-1.344-3.881-1.344z"></path>
</symbol>

<symbol id="icon-shuffle" viewBox="0 0 32 32">
<title>shuffle</title>
<path d="M26.012 12.829c0.311 0.309 0.814 0.307 1.122-0.005l4.635-4.675c0.308-0.31 0.307-0.811-0.002-1.12l-4.636-4.636c-0.31-0.31-0.812-0.31-1.122 0s-0.31 0.812 0 1.122l3.281 3.281h-4.767c-2.238 0.006-4.346 1.056-5.7 2.839l-3.848 5.097-3.848-5.097c-1.353-1.783-3.461-2.833-5.7-2.839h-4.635c-0.438 0-0.794 0.355-0.794 0.794s0.355 0.794 0.794 0.794h4.634c1.741 0.004 3.381 0.821 4.433 2.208l4.12 5.457-4.12 5.457c-1.053 1.387-2.692 2.203-4.433 2.208h-4.635c-0.438 0-0.794 0.355-0.794 0.794s0.355 0.794 0.794 0.794h4.634c2.239-0.006 4.347-1.055 5.7-2.839l3.848-5.096 3.848 5.097c1.353 1.783 3.461 2.833 5.7 2.839h4.767l-3.281 3.281c-0.202 0.2-0.281 0.493-0.208 0.768s0.288 0.489 0.563 0.563c0.275 0.073 0.568-0.006 0.768-0.208l4.635-4.636c0.309-0.309 0.31-0.809 0.002-1.12l-4.636-4.675c-0.199-0.205-0.493-0.288-0.769-0.216s-0.494 0.286-0.568 0.563c-0.074 0.276 0.006 0.57 0.21 0.771l3.295 3.322h-4.778c-1.741-0.004-3.381-0.821-4.433-2.208l-4.12-5.457 4.12-5.457c1.053-1.387 2.692-2.203 4.433-2.208h4.778l-3.294 3.322c-0.309 0.311-0.307 0.814 0.005 1.122z"></path>
</symbol>

<symbol id="icon-clock" viewBox="0 0 32 32">
<title>clock</title>
<path d="M16 0c-8.822 0-16 7.178-16 16s7.178 16 16 16 16-7.178 16-16-7.178-16-16-16zM16 30c-7.72 0-14-6.28-14-14s6.28-14 14-14 14 6.28 14 14-6.28 14-14 14z"></path>
<path d="M17 6h-2v10.414l6.293 6.293 1.414-1.414-5.707-5.707z"></path>
</symbol>

<symbol id="icon-basket" viewBox="0 0 32 32">
<title>add-to-cart</title>
<path d="M31.12 6.072c-0.593-0.678-1.439-1.051-2.381-1.051h-7.112v-4.083c0-0.518-0.42-0.938-0.938-0.938h-5.021c-0.518 0-0.938 0.42-0.938 0.938v4.083h-8.77l-0.229-1.719c-0.247-1.852-1.536-3.302-2.935-3.302h-1.674c-0.518 0-0.938 0.42-0.938 0.938s0.42 0.938 0.938 0.938h1.674c0.301 0 0.938 0.636 1.076 1.675l2.684 20.127c0.118 0.887 0.574 1.718 1.283 2.339 0.526 0.461 1.148 0.767 1.799 0.895-0.265 0.488-0.416 1.047-0.416 1.641 0 1.901 1.547 3.448 3.448 3.448s3.448-1.547 3.448-3.448c0-0.566-0.138-1.101-0.381-1.573h4.913c-0.243 0.472-0.381 1.006-0.381 1.573 0 1.901 1.547 3.448 3.448 3.448s3.448-1.547 3.448-3.448c0-0.566-0.138-1.101-0.381-1.573h2.456c0.518 0 0.938-0.42 0.938-0.938s-0.42-0.938-0.938-0.938h-18.912c-0.916 0-1.792-0.767-1.913-1.675l-0.196-1.471h18.511c0.895 0 1.779-0.342 2.488-0.963s1.165-1.452 1.284-2.339l1.344-10.085c0.125-0.934-0.134-1.822-0.727-2.499zM14.246 28.552c0 0.867-0.706 1.573-1.573 1.573s-1.573-0.706-1.573-1.573c0-0.867 0.706-1.573 1.573-1.573s1.573 0.706 1.573 1.573zM25.292 28.552c0 0.867-0.706 1.573-1.573 1.573s-1.573-0.706-1.573-1.573c0-0.867 0.706-1.573 1.573-1.573s1.573 0.706 1.573 1.573zM16.607 1.875h3.146v4.072c0 0.004-0 0.007-0 0.011s0 0.007 0 0.011v5.010c0 0.518 0.42 0.938 0.938 0.938h0.331l-2.785 2.763-2.785-2.763h0.219c0.518 0 0.938-0.42 0.938-0.938zM29.989 8.323l-1.344 10.086c-0.121 0.908-0.997 1.675-1.913 1.675h-18.761l-1.758-13.188h8.52v3.146h-1.557c-0.38 0-0.722 0.229-0.867 0.58s-0.063 0.755 0.207 1.023l5.061 5.021c0.183 0.181 0.421 0.272 0.66 0.272s0.478-0.091 0.66-0.272l5.061-5.021c0.27-0.268 0.351-0.671 0.207-1.023s-0.487-0.58-0.867-0.58h-1.669v-3.146h7.112c0.394 0 0.738 0.146 0.97 0.411s0.331 0.626 0.279 1.016z"></path>
</symbol>


</defs>
</svg>
